<svg width="39" height="39" viewBox="0 0 39 39" fill="none" xmlns="http://www.w3.org/2000/svg">
<rect width="38.78" height="38.78" fill="#272727"/>
<path d="M7 18.8919L9.64264 16.2492M9.64264 16.2492L18.8919 7L28.1411 16.2492M9.64264 16.2492V29.4625C9.64264 30.1922 10.2342 30.7838 10.964 30.7838H14.9279M28.1411 16.2492L30.7838 18.8919M28.1411 16.2492V29.4625C28.1411 30.1922 27.5496 30.7838 26.8198 30.7838H22.8559M14.9279 30.7838C15.6577 30.7838 16.2492 30.1922 16.2492 29.4625V24.1772C16.2492 23.4474 16.8408 22.8559 17.5706 22.8559H20.2132C20.943 22.8559 21.5345 23.4474 21.5345 24.1772V29.4625C21.5345 30.1922 22.1261 30.7838 22.8559 30.7838M14.9279 30.7838H22.8559" stroke="#F9F9F9" stroke-width="2" stroke-linecap="round" stroke-linejoin="round"/>
</svg>
